<?xml version="1.0" encoding="utf-8"?>
<!-- Generator: Adobe Illustrator 25.2.1, SVG Export Plug-In . SVG Version: 6.00 Build 0)  -->
<svg version="1.1" id="Capa_1" xmlns="http://www.w3.org/2000/svg" xmlns:xlink="http://www.w3.org/1999/xlink" x="0px" y="0px"
	 viewBox="0 0 1366 597" style="enable-background:new 0 0 1366 597;" xml:space="preserve">
<style type="text/css">
	.st0{fill:#C2E8FF;}
	.st1{fill:#768E9B;}
	.st2{fill:#8DFFC6;}
	.st3{fill:#1BB251;}
	.st4{fill:#25C9EF;}
</style>
<g>
	<g>
		<path class="st0" d="M131.2,531l-0.8-7.1L28.7,132.2l-0.7-6.1l468.1-52.8l0.8,7.1L485,482.9l0.9,8.1L131.2,531z"/>
		<path class="st1" d="M489.7,81.2l-11.8,401.5l0,1l0.1,1l-340.4,38.4l-0.1-1l-0.3-1l-101-388.7L489.7,81.2 M502.4,65.4L20.2,119.8
			l1.6,14.2l101.6,390.7l1.6,14.2l368.7-41.6l-1.6-14.2L504,79.6L502.4,65.4L502.4,65.4z"/>
		<path class="st2" d="M21,126.9c-3.9,0.4-7.4-2.4-7.9-6.3L8.3,78.1c-0.4-3.9,2.4-7.5,6.3-7.9l482.2-54.4c3.9-0.4,7.4,2.4,7.9,6.3
			l4.8,42.5c0.4,3.9-2.4,7.5-6.3,7.9L21,126.9z"/>
		<path class="st3" d="M497.6,22.8l4.8,42.5L20.2,119.8l-4.8-42.5L497.6,22.8 M496,8.7L13.8,63.1C6,64,0.3,71,1.2,78.9L6,121.4
			c0.9,7.8,8,13.5,15.8,12.6L504,79.6c7.8-0.9,13.5-8,12.6-15.8l-4.8-42.5C510.9,13.4,503.8,7.8,496,8.7L496,8.7z"/>
		<g>
			<path class="st2" d="M173.1,583.7c-19.6,2.2-37.3-11.9-39.5-31.5l-2.4-21.3l354.6-40l2.4,21.3c2.2,19.5-11.9,37.3-31.5,39.5
				L173.1,583.7z"/>
			<path class="st3" d="M479.5,498.9l1.6,14.2c1.8,15.6-9.5,29.8-25.2,31.6l-283.6,32c-15.6,1.8-29.8-9.5-31.6-25.2l-1.6-14.2
				L479.5,498.9 M492.1,483.1l-368.7,41.6l3.2,28.4c2.7,23.5,23.8,40.4,47.3,37.7l283.6-32c23.5-2.7,40.4-23.8,37.7-47.3
				L492.1,483.1L492.1,483.1z"/>
		</g>
		<g>
			<path class="st4" d="M391.1,318.9l-19-25.2l-7.5,23.1l-24.4,1l19,25.2l-45.9,5.2l-16.9,22l21.4,17.7l46-5.2
				c16.6-1.9,29.2-10.4,34.6-23.5C403.8,346.2,401.1,331.3,391.1,318.9z M345.8,257.3l-36.1-48c-10-12.6-23.4-19-36.7-17.5
				c-13.3,1.5-25,10.7-32.1,25.6l-15.4,34.1l23.5-3.1l12.9,19.6l15.2-33.7c0.2-0.4,0.4-0.7,0.5-1.1c0.1,0.2,0.3,0.3,0.4,0.5
				l35.7,47.6l28,3.8L345.8,257.3z M221.7,358.2l21.7-50l-9.9-25.1l-26.7,9.2l-21.6,49.8c-6.8,15.2-6,30.4,2.1,41.5
				c8.1,11.1,22.3,16.4,38.8,14.6l49-5.5l-16.4-18.3l11.9-21.5l-48.9,5.5C221.6,358.4,221.7,358.3,221.7,358.2z"/>
		</g>
	</g>
	<g>
		<path class="st2" d="M540.7,217.7l3.7-127.1c0.7-2,1.8-2.9,3.2-2.9l8.9,0.3c1.5,0,2.4,1.1,2.9,3.1l-3.6,124.1c0,1-0.3,1.7-0.7,2
			c-0.4,0.4-1.7,0.6-3.8,0.6C549.2,217.9,545.7,217.8,540.7,217.7z M547.5,165.1c-1.9-0.1-2.8-0.4-2.9-1c-0.1-0.6-0.1-1.7-0.1-3.2
			l2-69.7c0-0.4,0.1-1,0.2-2c0.1-1,0.8-1.5,2.2-1.4l17.3,0.5c7.8,0.2,14.2,1.7,19.2,4.4c5,2.7,8.6,6.8,10.9,12.2
			c2.3,5.5,3.3,12.5,3,21.2c-0.2,7.7-1.3,14.1-3.3,19.2c-1.9,5.1-4.5,9.1-7.8,12.1c-3.2,3-6.9,5.2-11.1,6.5s-8.5,1.9-13.1,1.8
			L547.5,165.1z M557.4,151.4l8.5,0.3c3.5,0.1,6.4-0.7,8.7-2.4c2.3-1.7,4.2-4.6,5.6-8.6c1.4-4,2.1-9.3,2.3-15.8
			c0.1-4.7-0.2-8.8-0.9-12.3c-0.8-3.5-2.2-6.2-4.3-8c-2.1-1.9-5-2.8-8.7-3l-9.7-0.3L557.4,151.4z M590.2,219.5c-1.1,0-2.4-0.1-4-0.2
			c-1.5-0.1-3.2-0.2-4.9-0.4c-0.3-10.7-1.3-19.7-3-27c-1.7-7.3-3.6-13.1-5.6-17.5c-2-4.3-4.6-8.4-7.7-12.2c-0.5-1.5,0-2.6,1.2-3.3
			l8.3-4.2c1.5,0,2.5,0.6,3.1,1.8c3.8,4.6,7,9.3,9.6,14.1c2.6,4.8,4.9,11,7.1,18.5c2.1,7.5,3.4,16.5,3.7,26.9c0,1.4-0.4,2.3-1.2,2.8
			C595.9,219.4,593.8,219.6,590.2,219.5z"/>
		<path class="st2" d="M618.6,220l3.7-127.1c0.7-2,1.8-2.9,3.2-2.9l44.6,1.3c-0.1,4.1-0.3,7.1-0.4,8.9c-0.2,1.9-0.5,3.1-0.9,3.7
			s-1,0.9-1.9,0.9l-29.9-0.9l-3,102.9l32,0.9c-0.1,4.2-0.3,7.3-0.5,9.2c-0.2,1.9-0.5,3.1-0.8,3.6c-0.4,0.5-1.1,0.7-2.1,0.7
			L618.6,220z M622.5,156.1l0.4-13.7l41.1,1.2c-0.2,5.7-0.4,9.4-0.7,11.1c-0.3,1.7-1.1,2.6-2.5,2.5L622.5,156.1z"/>
		<path class="st2" d="M713.7,224.6c-3.6-0.1-6.9-0.6-10-1.6c-3.1-1-5.8-2.7-8.3-5.1c-2.5-2.4-4.6-5.9-6.3-10.5
			c-1.7-4.6-3-10.6-3.7-18c-0.8-7.4-1-16.5-0.7-27.3c0.4-12.8,1.4-23.4,3.1-32c1.7-8.6,3.8-15.4,6.5-20.6c2.6-5.2,5.6-9.2,8.8-11.9
			c3.2-2.8,6.6-4.6,10.1-5.5c3.5-0.9,6.9-1.3,10.3-1.2c4.6,0.1,8.1,0.8,10.6,1.9c2.5,1.1,4.2,2.5,5.2,4.1c0.9,1.6,1.4,3.2,1.3,4.8
			c-0.1,1.7-0.3,3.4-0.9,5c-0.5,1.6-1.1,2.9-1.8,4c-0.6-0.5-1.5-1.1-2.6-1.8c-1.2-0.7-2.5-1.4-4.1-2c-1.6-0.6-3.3-0.9-5.2-1
			c-2.4-0.1-4.7,0.3-7,1c-2.3,0.7-4.5,2.2-6.6,4.5c-2.1,2.2-4,5.4-5.6,9.6c-1.6,4.2-3,9.6-4.1,16.2c-1.1,6.7-1.8,14.9-2.1,24.7
			c-0.3,9.4,0,17.1,0.7,23.1c0.8,6,1.9,10.6,3.4,14c1.5,3.3,3.4,5.7,5.7,7c2.3,1.3,4.7,2,7.5,2.1c3.6,0.1,7-0.4,10.1-1.6
			c3.1-1.1,5.5-2.4,7.2-3.7c0.6,1.3,1.1,2.7,1.5,4.3c0.4,1.6,0.6,3.2,0.6,4.9c-0.1,2.4-1.1,4.5-3.1,6.5c-2,2-4.7,3.5-8.2,4.7
			C722.3,224.3,718.3,224.8,713.7,224.6z"/>
		<path class="st2" d="M790.6,226.9c-7.4-0.2-13.3-1.4-17.7-3.7c-4.4-2.2-7.7-5.2-9.8-8.9s-3.5-8-4.1-12.9s-0.8-9.9-0.7-15.3l2.6-89
			c0-1.1,0.3-1.8,0.8-2.2c0.5-0.4,1.8-0.6,3.9-0.6c2.1-0.1,5.8,0,11,0.1l-2.7,92.5c-0.1,3.7,0,7.2,0.3,10.3c0.3,3.2,1,5.9,2.3,8.2
			c1.2,2.3,3,4.1,5.3,5.4c2.3,1.3,5.4,2,9.2,2.1c3.3,0.1,6.5-0.2,9.5-0.7c3-0.6,5.3-1.2,6.9-1.9l3.3-111.7c0-1.1,0.3-1.8,0.8-2.2
			c0.5-0.4,1.8-0.6,3.9-0.6c2.1-0.1,5.6,0,10.6,0.1l-3.7,125.2c-2.3,1.4-6.3,2.8-12,4.1C804.6,226.5,798.1,227.1,790.6,226.9z"/>
		<path class="st2" d="M845.3,226.6L849,99.5c0.7-2,1.8-2.9,3.2-2.9l44.6,1.3c-0.1,4.1-0.3,7.1-0.4,8.9c-0.2,1.9-0.5,3.1-0.9,3.7
			s-1,0.9-1.9,0.9l-29.9-0.9l-3,102.9l32,0.9c-0.1,4.2-0.3,7.3-0.5,9.2c-0.2,1.9-0.5,3.1-0.8,3.6c-0.4,0.5-1.1,0.7-2.1,0.7
			L845.3,226.6z M849.2,162.8l0.4-13.7l41.1,1.2c-0.2,5.7-0.4,9.4-0.7,11.1c-0.3,1.7-1.1,2.6-2.5,2.5L849.2,162.8z"/>
		<path class="st2" d="M913.1,228.6l3.7-127.1c0.7-2,1.8-2.9,3.2-2.9l8.9,0.3c1.5,0,2.4,1.1,2.9,3.1l-3.6,124.1c0,1-0.3,1.7-0.7,2
			c-0.4,0.4-1.7,0.6-3.8,0.6C921.6,228.8,918.1,228.8,913.1,228.6z M919.9,176c-1.9-0.1-2.8-0.4-2.9-1c-0.1-0.6-0.1-1.7-0.1-3.2
			l2-69.7c0-0.4,0.1-1,0.2-2c0.1-1,0.8-1.5,2.2-1.4l17.3,0.5c7.8,0.2,14.2,1.7,19.2,4.4c5,2.7,8.6,6.8,10.9,12.2
			c2.3,5.5,3.3,12.5,3,21.2c-0.2,7.7-1.3,14.1-3.3,19.2c-1.9,5.1-4.5,9.1-7.8,12.1c-3.2,3-6.9,5.2-11.1,6.5
			c-4.1,1.3-8.5,1.9-13.1,1.8L919.9,176z M929.8,162.3l8.5,0.3c3.5,0.1,6.4-0.7,8.7-2.4c2.3-1.7,4.2-4.6,5.6-8.6
			c1.4-4,2.1-9.3,2.3-15.8c0.1-4.7-0.2-8.8-0.9-12.3c-0.8-3.5-2.2-6.2-4.3-8c-2.1-1.9-5-2.8-8.7-3l-9.7-0.3L929.8,162.3z
			 M962.5,230.4c-1.1,0-2.4-0.1-4-0.2c-1.5-0.1-3.2-0.2-4.9-0.4c-0.3-10.7-1.3-19.7-3-27c-1.7-7.3-3.6-13.1-5.6-17.5
			c-2-4.3-4.6-8.4-7.7-12.2c-0.5-1.5,0-2.6,1.2-3.3l8.3-4.2c1.5,0,2.5,0.6,3.1,1.8c3.8,4.6,7,9.3,9.6,14.1c2.6,4.8,4.9,11,7.1,18.5
			c2.1,7.5,3.4,16.5,3.7,26.9c0,1.4-0.4,2.3-1.2,2.8C968.3,230.3,966.1,230.5,962.5,230.4z"/>
		<path class="st2" d="M991,230.9l3.7-126.5c0-1.1,0.4-2,1.1-2.6c0.7-0.6,2-0.9,4-0.8l18,0.5c6.1,0.2,11.4,1.3,15.9,3.3
			c4.5,2,8.2,5.2,11.1,9.7c2.8,4.5,4.9,10.5,6.3,18.1c1.3,7.6,1.8,17,1.5,28.3c-0.4,13.6-1.5,25-3.4,34.2
			c-1.9,9.2-4.5,16.5-7.8,21.8c-3.3,5.4-7.2,9.2-11.8,11.5c-4.5,2.3-9.6,3.3-15.3,3.2L991,230.9z M1006.5,217l8.4,0.2
			c2.5,0.1,4.9-0.5,7.1-1.8c2.3-1.3,4.4-3.9,6.3-7.9c1.9-4,3.5-9.8,4.8-17.6c1.3-7.8,2.1-18.1,2.5-31c0.3-8.5,0.1-15.6-0.6-21.2
			c-0.6-5.6-1.7-10-3.1-13.3c-1.5-3.3-3.3-5.6-5.7-6.9c-2.3-1.3-5-2-8.1-2.1l-8.5-0.3L1006.5,217z"/>
		<path class="st2" d="M1070.3,233.6c-1,0-2.4-0.1-4.1-0.3c-1.7-0.2-3.5-0.4-5.4-0.5l36.8-126.9c0.4-1.7,2.4-2.5,5.8-2.4
			c1.2,0,2.5,0.1,3.8,0.3c1.3,0.2,2.4,0.3,3.2,0.5l29.5,128.3c0.2,1-0.1,1.8-0.9,2.3c-0.8,0.5-2.7,0.8-5.7,0.7
			c-1.1,0-2.4-0.1-3.8-0.2c-1.4-0.1-3.1-0.2-5.1-0.4l-15.3-73.7c-0.9-4.2-1.7-8.5-2.4-12.9c-0.7-4.4-1.4-8.6-2-12.6
			c-0.6-4-0.9-7.6-1.1-10.5c-0.3,3-0.9,6.5-1.7,10.5c-0.8,4-1.7,8.2-2.7,12.5c-1,4.3-2.1,8.6-3.3,12.7l-18.6,70.1
			c-0.3,1-0.8,1.7-1.6,2.2C1075.2,233.5,1073.3,233.7,1070.3,233.6z M1081,200.4l0.4-13.7l44.4,1.3l-0.4,13.7L1081,200.4z"/>
		<path class="st2" d="M1195.6,236.9l3.7-125.8c0-1.4,0.3-2.3,0.8-3c0.5-0.6,1.8-0.9,3.9-1c2.1-0.1,5.6,0,10.6,0.1l-3.4,116l32,0.9
			l-0.3,11.1c0,1.2-0.3,2-0.9,2.4c-0.6,0.4-1.3,0.5-2.2,0.5L1195.6,236.9z"/>
		<path class="st2" d="M1264.9,239.3c-1,0-2.4-0.1-4.1-0.3c-1.7-0.2-3.5-0.4-5.4-0.5l36.8-126.9c0.4-1.7,2.4-2.5,5.8-2.4
			c1.2,0,2.5,0.1,3.8,0.3c1.3,0.2,2.4,0.3,3.2,0.5l29.5,128.3c0.2,1-0.1,1.8-0.9,2.3c-0.8,0.5-2.7,0.8-5.7,0.7
			c-1.1,0-2.4-0.1-3.8-0.2c-1.4-0.1-3.1-0.2-5.1-0.4l-15.3-73.7c-0.9-4.2-1.7-8.5-2.4-12.9c-0.7-4.4-1.4-8.6-2-12.6
			c-0.6-4-0.9-7.6-1.1-10.5c-0.3,3-0.9,6.5-1.7,10.5c-0.8,4-1.7,8.2-2.7,12.5c-1,4.3-2.1,8.6-3.3,12.7l-18.6,70.1
			c-0.3,1-0.8,1.7-1.6,2.2S1267.9,239.4,1264.9,239.3z M1275.5,206.1l0.4-13.7l44.4,1.3l-0.4,13.7L1275.5,206.1z"/>
	</g>
	<g>
		<path class="st4" d="M533.6,466.6l6.5-221.1c0.1-2.2,0.8-3.8,2.1-4.8c1.3-1,3.7-1.5,7.2-1.4l31.9,0.9c6.9,0.2,13.6,1.1,20.1,2.7
			c6.5,1.6,12.2,4.3,17.3,8.2c5.1,3.8,9.1,9.1,12.1,15.7c2.9,6.6,4.3,15.2,4,25.8c-0.3,11.5-2.2,20.9-5.5,28.2
			c-3.4,7.3-7.4,12.9-12,16.7c-4.7,3.9-9.4,6.1-14.2,6.6c3.7,0.3,7.7,1.3,12.1,2.8c4.4,1.5,8.4,4,12.1,7.5c3.7,3.5,6.7,8.3,9,14.4
			c2.3,6.1,3.3,14,3.1,23.5c-0.3,9.3-1.3,18-3.2,25.9c-1.9,8-4.6,15.1-8.1,21.2c-3.5,6.2-7.8,11.4-12.8,15.7
			c-5,4.3-10.7,7.6-17.2,9.7c-6.5,2.2-13.8,3.2-22.1,2.9L533.6,466.6z M571.4,330.7l9.4,0.3c3.3,0.1,6.1-1.1,8.6-3.7
			c2.5-2.5,4.5-6.3,6-11.2c1.6-4.9,2.4-10.9,2.6-17.8c0.2-8-0.3-14.1-1.6-18.3c-1.3-4.2-3.1-7-5.4-8.5c-2.3-1.5-4.9-2.3-7.7-2.3
			l-10.1-0.3L571.4,330.7z M568.2,439l9.1,0.3c3.3,0.1,6.2-0.8,8.7-2.7c2.5-1.9,4.8-4.7,6.8-8.6c2-3.8,3.6-8.6,4.8-14.2
			c1.2-5.6,2-12.2,2.2-19.8c0.2-7.8-0.1-13.9-0.9-18.4c-0.8-4.5-2.1-7.9-3.8-10.4c-1.7-2.4-3.7-4.1-6.2-4.9
			c-2.5-0.8-5.3-1.3-8.6-1.4l-9.8-0.3L568.2,439z"/>
		<path class="st4" d="M678.3,471.5c-2.2-0.1-5.2-0.3-9.1-0.6c-3.9-0.3-7.8-0.8-11.7-1.3l62.1-220.1c0.8-3.9,5.2-5.7,13.2-5.5
			c2.8,0.1,5.6,0.3,8.4,0.6c2.8,0.3,5.2,0.6,7.1,0.9l49.1,223.4c0.4,2-0.3,3.5-2.1,4.5c-1.8,1-6,1.5-12.7,1.3
			c-2.2-0.1-4.8-0.2-8-0.4c-3.1-0.2-6.9-0.5-11.2-0.8L741,353.3c-1.1-6.3-2.2-13-3.3-20.1c-1.1-7.1-2-14.3-2.8-21.6
			c-0.8-7.3-1.3-14.1-1.5-20.4c-0.8,6.3-1.9,13-3.2,20.2c-1.3,7.2-2.6,14.4-3.9,21.4c-1.3,7-2.8,13.6-4.5,19.9l-28.1,113.1
			c-0.5,1.9-1.5,3.4-3.1,4.5C689.1,471.3,685,471.7,678.3,471.5z M694.8,417.7l0.9-29.9l75.1,2.2l-0.9,29.9L694.8,417.7z"/>
		<path class="st4" d="M859.3,479.5c-14.5-0.4-25.2-2.9-32-7.4c-6.8-4.5-10.1-9.5-10-14.9c0.1-3.3,0.8-7.1,2.1-11.5
			c1.3-4.4,3.4-8.4,6.4-12c3.4,3.1,7.7,5.9,13.1,8.2c5.4,2.3,11.3,3.6,17.8,3.8c9.8,0.3,16.7-2.1,20.7-7c4.1-5,6.2-11.7,6.5-20.2
			c0.2-6.1-0.8-11.8-2.9-17.3c-2.1-5.5-6.1-12.2-11.9-20.2l-29.4-39.9c-7.1-10-11.8-18.6-14.2-26c-2.4-7.3-3.5-14.7-3.3-22.1
			c0.4-14.5,5.6-26.1,15.5-34.9c9.9-8.7,24.3-12.8,43.2-12.2c16,0.5,27.3,2.4,33.7,5.9c6.4,3.4,9.5,7.8,9.4,13
			c-0.1,2.8-0.8,5.8-2.1,9.1c-1.3,3.2-3.4,6.3-6.3,9.3c-1.9-1.4-5.6-2.9-11.1-4.7c-5.5-1.8-11.6-2.8-18.3-3
			c-8.5-0.2-15.2,1.1-20.3,4.1c-5.1,3-7.7,7.5-7.9,13.6c-0.2,5.2,0.8,10.1,2.8,14.6c2,4.5,5.1,9.8,9.3,15.7l31.3,40.9
			c7.7,10.2,12.8,19.4,15.3,27.6c2.5,8.2,3.6,17.1,3.3,26.6c-0.3,10.8-2.4,21-6.1,30.4c-3.8,9.4-9.9,17-18.4,22.7
			C887,477.3,874.9,479.9,859.3,479.5z"/>
		<path class="st4" d="M1008.6,483.8c-13-0.4-23.3-2.5-30.9-6.3c-7.6-3.8-13.3-8.8-17.1-15c-3.8-6.2-6.3-13.4-7.3-21.5
			c-1.1-8.2-1.5-16.8-1.2-25.9l4.6-157.4c0.1-2.4,0.7-3.9,1.8-4.7c1.1-0.7,4-1.1,8.7-1.2c4.7-0.1,12.7,0,24.2,0.4l-4.8,164.9
			c-0.2,5.6,0,10.7,0.4,15.1c0.4,4.5,1.4,8.2,3.1,11.3c1.6,3.1,4.1,5.4,7.3,7.1c3.2,1.6,7.3,2.5,12.3,2.6c4.3,0.1,8.5-0.2,12.6-0.9
			c4-0.7,7.3-1.6,9.7-2.6l5.6-189.6c0.1-2.4,0.6-3.9,1.6-4.7c1-0.7,3.8-1.1,8.5-1.2c4.7-0.1,12.5,0,23.6,0.4l-6.4,218.9
			c-4,2.5-10.9,4.9-20.9,7.4C1033.7,483.2,1022,484.2,1008.6,483.8z"/>
		<path class="st4" d="M1101.7,483.3l6.5-221.5c1.2-4.1,3.3-6.1,6.4-6l20.8,0.6c3,0.1,5,2.2,6,6.4l-6.3,215.3
			c-0.1,2.2-0.6,3.6-1.6,4.3c-1,0.7-3.8,1.1-8.5,1.2C1120.3,483.7,1112.5,483.6,1101.7,483.3z M1114.7,394.2c-3.7-0.1-5.7-0.8-6.1-2
			c-0.4-1.2-0.6-3.4-0.5-6.7l3.6-123.2c0-0.2,0.1-1.4,0.3-3.4c0.2-2.1,1.9-3,5.1-2.9l28.6,0.8c13.7,0.4,25,2.7,34.1,7
			c9.1,4.3,15.8,11.3,20.2,20.9c4.4,9.7,6.3,23,5.8,39.9c-0.4,14.3-2.4,26.1-6.1,35.3c-3.6,9.2-8.5,16.4-14.5,21.5
			c-6,5.1-12.7,8.7-20,10.8c-7.3,2.1-14.8,3-22.4,2.8L1114.7,394.2z M1138,364.6l9.4,0.3c4.3,0.1,8-1,11-3.4c3-2.4,5.4-6.8,7.2-13.1
			c1.8-6.3,2.9-15.2,3.2-26.4c0.2-8-0.1-14.7-1-20c-0.9-5.3-2.7-9.4-5.3-12c-2.6-2.7-6.1-4.1-10.5-4.2l-11.7-0.3L1138,364.6z
			 M1188.5,486.8c-2.6-0.1-5.6-0.3-8.9-0.6c-3.4-0.3-6.9-0.6-10.6-1c-0.1-18.9-1.5-34.6-4.1-47.3c-2.7-12.7-5.7-22.6-9-29.9
			c-3.4-7.3-7.8-14-13.2-20.2c-1-3.1-0.2-5.2,2.5-6.4l18.8-9.9c3,0.1,5.1,1.2,6.1,3.4c7.2,7.6,13,15.6,17.5,23.9
			c4.5,8.4,8.7,19.2,12.4,32.4c3.7,13.2,5.7,29.3,5.7,48.2c-0.1,2.8-1,4.8-2.6,5.9C1201.3,486.6,1196.5,487.1,1188.5,486.8z"/>
		<path class="st4" d="M1246.7,488.2c-2.2-0.1-5.2-0.3-9.1-0.6c-3.9-0.3-7.8-0.8-11.7-1.3l62.1-220.1c0.8-3.9,5.2-5.7,13.2-5.5
			c2.8,0.1,5.6,0.3,8.4,0.6c2.8,0.3,5.2,0.6,7.1,0.9l49.1,223.4c0.4,2-0.3,3.5-2.1,4.5c-1.8,1-6,1.5-12.7,1.3
			c-2.2-0.1-4.8-0.2-8-0.4c-3.1-0.2-6.9-0.5-11.2-0.8L1309.4,370c-1.1-6.3-2.2-13-3.3-20.1c-1.1-7.1-2-14.3-2.8-21.6
			c-0.8-7.3-1.3-14.1-1.5-20.4c-0.8,6.3-1.9,13-3.2,20.2c-1.3,7.2-2.6,14.4-3.9,21.4c-1.3,7-2.8,13.6-4.5,19.9l-28.1,113.1
			c-0.5,1.9-1.5,3.4-3.1,4.5C1257.6,488,1253.4,488.4,1246.7,488.2z M1263.3,434.3l0.9-29.9l75.1,2.2l-0.9,29.9L1263.3,434.3z"/>
	</g>
</g>
</svg>
